<svg width="1455" height="1246" viewBox="0 0 1455 1246" fill="none" xmlns="http://www.w3.org/2000/svg">
<path d="M1203.1 622.429C1203.1 885.078 990.18 1098 727.531 1098C464.882 1098 251.963 885.078 251.963 622.429C251.963 359.78 464.882 146.861 727.531 146.861C990.18 146.861 1203.1 359.78 1203.1 622.429Z" fill="#6C63FF" stroke="#132450" stroke-width="52.2456"/>
<path d="M1347.06 33.8752L1347.07 33.8662C1359.01 26.6609 1373.26 24.3718 1386.84 27.4717L1392.65 2.02635L1386.84 27.4718C1400.43 30.572 1412.3 38.8257 1419.95 50.5177C1426.93 61.192 1429.92 74.0006 1428.39 86.6787C1426.86 99.3618 1420.9 111.084 1411.58 119.776C1411.11 120.21 1410.67 120.661 1410.23 121.127L1405.67 125.377C1405.58 125.459 1405.5 125.541 1405.41 125.624L1387.4 142.869C1387.35 142.914 1387.3 142.96 1387.26 143.005C1317.21 211.08 1243.53 294.59 1174.05 373.349C1143.93 407.489 1114.59 440.737 1086.69 471.448C1086.46 471.697 1086.24 471.95 1086.02 472.208C909.272 682.489 732.613 990.419 624.767 1179.19C608.105 1208.36 582.989 1219.34 557.93 1219.73C531.44 1220.14 506.41 1208.61 493.345 1194.05C493.251 1193.94 493.157 1193.84 493.061 1193.74L41.5269 706.361C41.4213 706.247 41.3147 706.134 41.2071 706.022C36.1922 700.799 32.2737 694.616 29.6873 687.84C27.1008 681.064 25.8998 673.834 26.1569 666.581C26.414 659.328 28.1238 652.202 31.1831 645.627C34.2423 639.053 38.5879 633.166 43.9587 628.314C44.7107 627.634 45.4225 626.912 46.0905 626.15L138.093 521.198C147.226 513.36 158.717 508.801 170.741 508.26C183.222 507.699 195.515 511.501 205.517 519.025L205.53 519.034L470.43 718.041C480.783 725.819 495.271 724.838 504.482 715.736C916.747 308.332 1149.83 152.714 1347.06 33.8752Z" fill="#00BFA6" stroke="#132450" stroke-width="52.2456" stroke-linecap="round" stroke-linejoin="round"/>
</svg>
