<svg width="6017" height="1246" viewBox="0 0 6017 1246" fill="none" xmlns="http://www.w3.org/2000/svg">
<path d="M1785.3 905.271C1747.75 905.271 1711.67 898.091 1677.06 883.732C1642.45 869.374 1611.89 848.94 1585.38 822.431C1558.87 795.923 1538.44 765.364 1524.08 730.756C1509.72 696.148 1502.54 660.067 1502.54 622.513C1502.54 584.959 1509.72 548.878 1524.08 514.27C1538.44 479.662 1558.87 449.103 1585.38 422.595C1611.89 396.086 1642.45 375.652 1677.06 361.294C1711.67 346.935 1747.75 339.755 1785.3 339.755C1822.86 339.755 1858.94 346.935 1893.54 361.294C1928.15 375.652 1958.71 396.086 1985.22 422.595C2011.73 449.103 2032.16 479.662 2046.52 514.27C2060.88 548.878 2068.06 584.959 2068.06 622.513C2068.06 660.067 2060.88 696.148 2046.52 730.756C2032.16 765.364 2011.73 795.923 1985.22 822.431C1958.71 848.94 1928.15 869.374 1893.54 883.732C1858.94 898.091 1822.86 905.271 1785.3 905.271ZM1785.3 763.892C1824.33 763.892 1857.65 750.085 1885.26 722.472C1912.87 694.859 1926.68 661.539 1926.68 622.513C1926.68 583.487 1912.87 550.167 1885.26 522.554C1857.65 494.941 1824.33 481.134 1785.3 481.134C1746.27 481.134 1712.96 494.941 1685.34 522.554C1657.73 550.167 1643.92 583.487 1643.92 622.513C1643.92 661.539 1657.73 694.859 1685.34 722.472C1712.96 750.085 1746.27 763.892 1785.3 763.892ZM2405.49 763.892C2444.52 763.892 2477.84 750.085 2505.45 722.472C2533.06 694.859 2546.87 661.539 2546.87 622.513C2546.87 583.487 2533.06 550.167 2505.45 522.554C2477.84 494.941 2444.52 481.134 2405.49 481.134C2366.46 481.134 2333.14 494.941 2305.53 522.554C2277.92 550.167 2264.11 583.487 2264.11 622.513C2264.11 661.539 2277.92 694.859 2305.53 722.472C2333.14 750.085 2366.46 763.892 2405.49 763.892ZM2122.73 622.513C2122.73 584.959 2129.91 548.878 2144.27 514.27C2158.63 479.662 2179.06 449.103 2205.57 422.595C2232.08 396.086 2262.64 375.652 2297.25 361.294C2331.86 346.935 2367.94 339.755 2405.49 339.755C2443.04 339.755 2479.13 346.935 2513.73 361.294C2548.34 375.652 2578.9 396.086 2605.41 422.595C2631.92 449.103 2652.35 479.662 2666.71 514.27C2681.07 548.878 2688.25 584.959 2688.25 622.513C2688.25 660.067 2681.07 696.148 2666.71 730.756C2652.35 765.364 2631.92 795.923 2605.41 822.431C2578.9 848.94 2548.34 869.374 2513.73 883.732C2479.13 898.091 2443.04 905.271 2405.49 905.271C2367.94 905.271 2331.86 898.091 2297.25 883.732C2285.83 878.946 2274.79 873.423 2264.11 867.165V1046.65H2122.73V622.513ZM2890.93 905.271H2749.55V339.755H2890.93V905.271ZM2820.24 269.066C2795.94 269.066 2775.14 260.414 2757.83 243.11C2740.53 225.806 2731.88 205.004 2731.88 180.704C2731.88 156.405 2740.53 135.603 2757.83 118.299C2775.14 100.995 2795.94 92.3427 2820.24 92.3427C2844.54 92.3427 2865.34 100.995 2882.64 118.299C2899.95 135.603 2908.6 156.405 2908.6 180.704C2908.6 205.004 2899.95 225.806 2882.64 243.11C2865.34 260.414 2844.54 269.066 2820.24 269.066ZM3126.74 622.513V905.271H2985.36V622.513C2985.36 584.959 2992.54 548.878 3006.9 514.27C3021.26 479.662 3041.69 449.103 3068.2 422.595C3094.71 396.086 3125.27 375.652 3159.88 361.294C3194.49 346.935 3230.57 339.755 3268.12 339.755C3305.68 339.755 3341.76 346.935 3376.36 361.294C3410.97 375.652 3441.53 396.086 3468.04 422.595C3494.55 449.103 3514.98 479.662 3529.34 514.27C3543.7 548.878 3550.88 584.959 3550.88 622.513V905.271H3409.5V622.513C3409.5 583.487 3395.69 550.167 3368.08 522.554C3340.47 494.941 3307.15 481.134 3268.12 481.134C3229.1 481.134 3195.78 494.941 3168.16 522.554C3140.55 550.167 3126.74 583.487 3126.74 622.513ZM3788.35 905.271H3646.97V339.755H3788.35V905.271ZM3717.66 269.066C3693.36 269.066 3672.56 260.414 3655.26 243.11C3637.95 225.806 3629.3 205.004 3629.3 180.704C3629.3 156.405 3637.95 135.603 3655.26 118.299C3672.56 100.995 3693.36 92.3427 3717.66 92.3427C3741.96 92.3427 3762.76 100.995 3780.07 118.299C3797.37 135.603 3806.02 156.405 3806.02 180.704C3806.02 205.004 3797.37 225.806 3780.07 243.11C3762.76 260.414 3741.96 269.066 3717.66 269.066ZM4130.75 905.271C4093.2 905.271 4057.12 898.091 4022.51 883.732C3987.9 869.374 3957.34 848.94 3930.83 822.431C3904.33 795.923 3883.89 765.364 3869.53 730.756C3855.17 696.148 3848 660.067 3848 622.513C3848 584.959 3855.17 548.878 3869.53 514.27C3883.89 479.662 3904.33 449.103 3930.83 422.595C3957.34 396.086 3987.9 375.652 4022.51 361.294C4057.12 346.935 4093.2 339.755 4130.75 339.755C4168.31 339.755 4204.39 346.935 4239 361.294C4273.6 375.652 4304.16 396.086 4330.67 422.595C4357.18 449.103 4377.61 479.662 4391.97 514.27C4406.33 548.878 4413.51 584.959 4413.51 622.513C4413.51 660.067 4406.33 696.148 4391.97 730.756C4377.61 765.364 4357.18 795.923 4330.67 822.431C4304.16 848.94 4273.6 869.374 4239 883.732C4204.39 898.091 4168.31 905.271 4130.75 905.271ZM4130.75 763.892C4169.78 763.892 4203.1 750.085 4230.71 722.472C4258.33 694.859 4272.13 661.539 4272.13 622.513C4272.13 583.487 4258.33 550.167 4230.71 522.554C4203.1 494.941 4169.78 481.134 4130.75 481.134C4091.73 481.134 4058.41 494.941 4030.79 522.554C4003.18 550.167 3989.37 583.487 3989.37 622.513C3989.37 661.539 4003.18 694.859 4030.79 722.472C4058.41 750.085 4091.73 763.892 4130.75 763.892ZM4625.58 622.513V905.271H4484.2V622.513C4484.2 584.959 4491.38 548.878 4505.74 514.27C4520.1 479.662 4540.53 449.103 4567.04 422.595C4593.55 396.086 4624.11 375.652 4658.71 361.294C4693.32 346.935 4729.4 339.755 4766.96 339.755C4804.51 339.755 4840.59 346.935 4875.2 361.294C4909.81 375.652 4940.37 396.086 4966.88 422.595C4993.38 449.103 5013.82 479.662 5028.18 514.27C5042.54 548.878 5049.71 584.959 5049.71 622.513V905.271H4908.34V622.513C4908.34 583.487 4894.53 550.167 4866.92 522.554C4839.3 494.941 4805.98 481.134 4766.96 481.134C4727.93 481.134 4694.61 494.941 4667 522.554C4639.38 550.167 4625.58 583.487 4625.58 622.513Z" fill="#132450"/>
<path d="M5301.37 905.271H5159.99V198.377H5301.37V905.271ZM5555.96 688.784V905.271H5414.58V198.377H5555.96V556.242L5785.7 339.755H5980.1L5697.34 622.513L5980.1 905.271H5785.7L5555.96 688.784Z" fill="#00BFA6"/>
<path d="M1204.14 622.496C1204.14 885.174 991.194 1098.12 728.516 1098.12C465.839 1098.12 252.897 885.174 252.897 622.496C252.897 359.819 465.839 146.877 728.516 146.877C991.194 146.877 1204.14 359.819 1204.14 622.496Z" fill="#6C63FF" stroke="#132450" stroke-width="52.2513"/>
<path d="M1348.1 33.8789L1348.12 33.8698C1360.06 26.6638 1374.32 24.3744 1387.9 27.4747C1401.48 30.5753 1413.35 38.8299 1421.01 50.5232C1427.99 61.1986 1430.98 74.0086 1429.45 86.6881C1427.91 99.3725 1421.95 111.096 1412.64 119.789C1412.17 120.223 1411.72 120.674 1411.29 121.141L1406.73 125.39C1406.64 125.472 1406.55 125.554 1406.46 125.637L1388.45 142.885L1388.37 142.961L1388.31 143.02C1318.26 211.103 1244.57 294.622 1175.08 373.39C1144.95 407.533 1115.62 440.784 1087.71 471.499C1087.48 471.748 1087.26 472.001 1087.04 472.259C910.274 682.562 733.596 990.525 625.738 1179.32C609.075 1208.49 583.956 1219.47 558.894 1219.86C532.402 1220.28 507.369 1208.74 494.302 1194.18C494.256 1194.12 494.209 1194.07 494.162 1194.02C494.115 1193.97 494.067 1193.92 494.019 1193.86L42.4357 706.437C42.3301 706.323 42.2234 706.21 42.1158 706.098C37.1004 700.875 33.1815 694.691 30.5948 687.914C28.008 681.137 26.8069 673.906 27.064 666.653C27.3211 659.399 29.0311 652.272 32.0908 645.697C35.1503 639.122 39.4964 633.234 44.8677 628.381C45.6198 627.702 46.3317 626.979 46.9998 626.217L139.012 521.254C148.146 513.415 159.638 508.856 171.664 508.315C184.146 507.754 196.441 511.556 206.444 519.08L206.457 519.09L471.385 718.119C481.739 725.897 496.229 724.916 505.44 715.813C917.749 308.365 1150.86 152.73 1348.1 33.8789Z" fill="#00BFA6" stroke="#132450" stroke-width="52.2513" stroke-linecap="round" stroke-linejoin="round"/>
</svg>
